Coordinates
version=1
nRows=33
nColumns=33
inDegrees=yes

Units are S.I. units (second, meters, Newtons, ...)
Angles are in degrees.

endheader
time	ground_thorax_rot_x	ground_thorax_rot_y	ground_thorax_rot_z	ground_thorax_tx	ground_thorax_ty	ground_thorax_tz	clav_prot_r	clav_elev_r	scapula_abduction_r	scapula_elevation_r	scapula_upward_rot_r	scapula_winging_r	shoulder_elv_r	plane_of_elev_r	axial_rot_r	elbow_flexion_r	pro_sup_r	wrist_flex_r	wrist_dev_r	clav_prot_l	clav_elev_l	scapula_abduction_l	scapula_elevation_l	scapula_upward_rot_l	scapula_winging_l	shoulder_elv_l	plane_of_elev_l	axial_rot_l	elbow_flexion_l	pro_sup_l	wrist_flex_l	wrist_dev_l	
2.1700	19.278823	44.594930	7.290496	0.015518	1.014405	-0.047030	-21.150823	29.091918	-18.699767	20.369740	45.000000	-12.277151	15.777611	-86.431070	40.646937	77.307617	-18.845194	32.991441	-7.527668	23.332787	-14.457835	-45.000000	-4.261211	-27.466624	18.100076	41.519795	1.894284	-22.578870	58.864711	13.868983	27.474063	-9.103657	
2.1800	19.302252	45.187680	6.649797	0.016412	1.015412	-0.047878	-22.623605	27.496555	-19.926059	18.909463	45.000000	-13.162125	26.810258	-83.591656	51.321654	78.322644	-19.888799	31.822249	-6.939228	23.423059	-15.599294	-45.000000	-4.232179	-29.936077	17.515509	43.935659	4.946044	-21.610830	57.526849	13.636310	28.805625	-8.833617	
2.1900	19.434743	45.947193	5.712884	0.017732	1.017033	-0.048986	-24.681098	25.279085	-21.665303	16.882104	45.000000	-14.386870	41.737515	-79.755816	65.912140	79.637050	-20.868630	30.580106	-6.469696	23.523015	-16.923554	-45.000000	-3.920841	-32.012095	16.855203	46.370825	7.652255	-20.669426	56.114157	13.503326	30.085023	-8.632260	
2.2000	19.662872	46.840624	4.561693	0.019388	1.019196	-0.050305	-27.144905	22.537260	-23.659711	14.383794	45.000000	-15.866973	59.037743	-75.399960	82.831836	81.179201	-21.679829	29.295601	-6.108227	23.691634	-18.345720	-45.000000	-3.255183	-33.306217	16.197817	48.377631	9.702811	-19.974759	54.681968	13.474701	31.218001	-8.480287	
2.2100	19.891737	47.631075	3.482938	0.020970	1.021222	-0.051562	-29.364018	19.996730	-25.412284	12.077138	45.000000	-17.196079	74.462481	-71.489011	97.877770	82.532027	-22.550904	28.081719	-5.794241	23.856101	-19.696848	-45.000000	-2.524620	-34.260274	15.572937	50.054039	11.369035	-19.266977	53.214212	13.452704	32.214899	-8.363321	
2.2200	20.107443	48.297025	2.553512	0.022434	1.023033	-0.052743	-31.223838	17.738994	-26.754104	10.037290	45.000000	-18.330480	87.088135	-68.341219	110.059653	83.670184	-23.312115	26.866429	-5.482590	24.045829	-20.866636	-45.000000	-1.658803	-34.428117	15.068503	50.914784	12.329121	-18.724633	51.728095	13.515970	33.070216	-8.278073	
2.2300	20.245166	48.680954	1.979869	0.023450	1.024082	-0.053623	-32.259072	16.337997	-27.387215	8.783825	45.000000	-18.969978	93.919584	-66.584950	116.443071	84.275550	-24.261501	25.755246	-5.098685	24.193878	-21.783354	-45.000000	-0.957797	-34.497854	14.662998	51.335260	13.084607	-18.069613	50.196197	13.560858	33.838384	-8.202467	
2.2400	20.298857	48.843054	1.725681	0.024071	1.024449	-0.054257	-32.603926	15.673401	-27.438320	8.203520	45.000000	-19.196890	95.951384	-65.992137	118.024606	84.416337	-25.335708	24.708653	-4.623827	24.305162	-22.461275	-45.000000	-0.443435	-34.562369	14.351480	51.405426	13.781121	-17.333755	48.608383	13.634503	34.561405	-8.124582	
2.2500	20.274492	48.818148	1.712068	0.024348	1.024208	-0.054677	-32.404824	15.635219	-27.103890	8.194102	45.000000	-19.076578	94.439883	-66.173602	116.121567	84.137200	-26.621716	23.770184	-4.077487	24.350613	-22.993002	-45.000000	-0.222819	-35.132319	14.055813	51.625972	14.850185	-16.332006	46.942878	13.691300	35.273409	-8.035936	
2.2600	20.246802	48.800730	1.708946	0.024629	1.023936	-0.055107	-32.201729	15.623442	-26.778053	8.205437	45.000000	-18.957226	92.789143	-66.356936	114.095717	83.765418	-27.858365	22.852188	-3.533666	24.392724	-23.491365	-45.000000	-0.015857	-35.667712	13.772854	51.777517	15.923098	-15.326733	45.228059	13.846715	35.924987	-7.942276	
2.2700	20.225371	48.787106	1.699435	0.024930	1.023719	-0.055532	-32.006148	15.586903	-26.448433	8.196771	45.000000	-18.841518	91.085404	-66.511590	112.033530	83.314435	-29.046036	21.979717	-3.025073	24.439443	-24.005091	-45.000000	0.216955	-36.167071	13.477470	51.911130	16.936228	-14.287919	43.495908	14.041500	36.473618	-7.835060	
2.2800	20.209713	48.788222	1.687154	0.025242	1.023544	-0.055956	-31.818088	15.534716	-26.120472	8.175160	45.000000	-18.729906	89.340510	-66.641799	109.939657	82.778067	-30.171863	21.139303	-2.543895	24.490887	-24.528359	-45.000000	0.476656	-36.614740	13.172733	52.018582	17.889960	-13.246044	41.741654	14.268232	36.927679	-7.709535	
2.2900	20.208044	48.791975	1.664388	0.025558	1.023378	-0.056376	-31.626276	15.488653	-25.789094	8.158683	45.000000	-18.617573	87.489543	-66.750015	107.754074	82.154302	-31.254059	20.318673	-2.085964	24.544227	-25.055918	-45.000000	0.750825	-37.033744	12.861090	52.113991	18.809458	-12.184114	39.966773	14.514500	37.299642	-7.570817	
2.3000	20.213180	48.809280	1.647622	0.025867	1.023191	-0.056779	-31.435407	15.480508	-25.480368	8.171468	45.000000	-18.510071	85.467921	-66.839894	105.426013	81.440599	-32.342942	19.500781	-1.629998	24.597518	-25.589108	-45.000000	1.025135	-37.466903	12.540884	52.241901	19.727179	-11.118023	38.169587	14.778452	37.626666	-7.420938	
2.3100	20.231448	48.835073	1.632003	0.026167	1.022977	-0.057160	-31.241525	15.523428	-25.195656	8.224248	45.000000	-18.405968	83.232215	-66.905465	102.918765	80.628137	-33.430039	18.698632	-1.189599	24.649723	-26.137939	-45.000000	1.297256	-37.943118	12.206085	52.437667	20.651598	-10.033497	36.359974	15.061874	37.899280	-7.258128	
2.3200	20.244200	48.869666	1.625167	0.026464	1.022791	-0.057524	-31.050514	15.567096	-24.915010	8.277311	45.000000	-18.304637	80.911498	-66.942323	100.360868	79.723306	-34.457656	17.918004	-0.779008	24.704562	-26.700944	-45.000000	1.580467	-38.422661	11.857089	52.683246	21.534660	-8.931548	34.550377	15.347490	38.099561	-7.079331	
2.3300	20.265201	48.910701	1.621386	0.026755	1.022585	-0.057863	-30.857849	15.653900	-24.655972	8.364162	45.000000	-18.206563	78.403403	-66.938526	97.653624	78.719086	-35.454756	17.147092	-0.381430	24.758555	-27.279856	-45.000000	1.863381	-38.941268	11.492660	53.005280	22.412541	-7.801025	32.730761	15.635552	38.247518	-6.883490	
2.3400	20.262455	48.953355	1.635302	0.027044	1.022447	-0.058179	-30.669886	15.708774	-24.384863	8.425754	45.000000	-18.109756	75.885560	-66.893609	94.983515	77.622990	-36.359546	16.412690	-0.023079	24.817152	-27.870123	-45.000000	2.165187	-39.435956	11.115084	53.371136	23.209384	-6.642464	30.918219	15.903097	38.304637	-6.667106	
2.3500	20.260027	48.998113	1.646864	0.027327	1.022320	-0.058473	-30.483284	15.773126	-24.120755	8.494644	45.000000	-18.014976	73.269841	-66.797449	92.252737	76.433079	-37.214542	15.696663	0.330327	24.877460	-28.473399	-45.000000	2.477005	-39.935590	10.723093	53.794563	23.974856	-5.433237	29.085345	16.144671	38.298295	-6.427431	
2.3600	20.228071	49.041204	1.670751	0.027608	1.022275	-0.058752	-30.299046	15.796250	-23.835515	8.531311	45.000000	-17.919037	70.660384	-66.655120	89.585236	75.138180	-37.993471	15.026897	0.654495	24.941861	-29.085462	-45.000000	2.807633	-40.406585	10.318935	54.264317	24.654481	-4.174127	27.257957	16.340434	38.191871	-6.161734	
2.3700	20.211313	49.089328	1.699690	0.027870	1.022141	-0.058999	-30.095997	15.920152	-23.578608	8.648510	45.000000	-17.819998	67.781999	-66.466160	86.707405	73.724338	-38.810595	14.377390	0.991099	24.997695	-29.708626	-45.000000	3.115868	-40.968265	9.901694	54.853662	25.369285	-2.884919	25.418875	16.506321	38.068104	-5.867061	
2.3800	20.166369	49.146122	1.759046	0.028131	1.022024	-0.059232	-29.884469	16.058727	-23.315616	8.778112	45.000000	-17.717995	64.851457	-66.244733	83.859589	72.197943	-39.600574	13.792224	1.288378	25.050339	-30.333118	-45.000000	3.417318	-41.555283	9.477544	55.527940	26.024254	-1.625395	23.625561	16.633258	37.878097	-5.541870	
2.3900	20.143656	49.214713	1.814353	0.028392	1.021828	-0.059455	-29.658337	16.278536	-23.076280	8.972621	45.000000	-17.613621	61.783283	-65.970314	80.934872	70.572002	-40.414599	13.250302	1.591743	25.095875	-30.960378	-45.000000	3.700387	-42.203253	9.046073	56.292423	26.688983	-0.398726	21.851963	16.711988	37.661526	-5.179150	
2.4000	20.098303	49.287313	1.876986	0.028659	1.021658	-0.059684	-29.428580	16.492462	-22.826423	9.163010	45.000000	-17.507741	58.723165	-65.648322	78.105693	68.845868	-41.215207	12.775879	1.867089	25.138415	-31.571819	-45.000000	3.973963	-42.845142	8.619804	57.111255	27.293533	0.775850	20.136996	16.720346	37.371483	-4.782753	
2.4100	20.057333	49.363041	1.932336	0.028933	1.021472	-0.059928	-29.192527	16.721901	-22.574275	9.366124	45.000000	-17.400566	55.692176	-65.274957	75.379430	67.054344	-42.006292	12.346290	2.123070	25.177581	-32.160317	-45.000000	4.233632	-43.476835	8.204353	57.950622	27.858242	1.857331	18.482218	16.664531	37.038120	-4.355473	
2.4200	19.973121	49.440521	1.986319	0.029221	1.021399	-0.060195	-28.975412	16.865678	-22.300612	9.500427	45.000000	-17.299748	52.850653	-64.848444	72.937431	65.203003	-42.746705	11.971060	2.339015	25.222067	-32.705796	-45.000000	4.498441	-43.999636	7.813077	58.742516	28.303077	2.846270	16.910836	16.514029	36.602000	-3.912059	
2.4300	19.872353	49.526259	2.025920	0.029524	1.021408	-0.060494	-28.776667	16.947854	-22.019191	9.584736	45.000000	-17.205937	50.207823	-64.371895	70.766286	63.323581	-43.435854	11.626913	2.520096	25.273747	-33.206410	-45.000000	4.771220	-44.401264	7.448018	59.440764	28.640826	3.717685	15.420553	16.273516	36.080786	-3.454034	
2.4400	19.740672	49.599411	2.050408	0.029829	1.021478	-0.060791	-28.583991	16.998044	-21.727612	9.643611	45.000000	-17.114079	47.613057	-63.830450	68.738506	61.386511	-44.100994	11.330814	2.658444	25.328500	-33.639145	-45.000000	5.033520	-44.678364	7.127285	60.039331	28.892895	4.514049	14.017313	15.895688	35.454563	-2.981862	
2.4500	19.609740	49.676894	2.071804	0.030135	1.021537	-0.061101	-28.381310	17.066579	-21.429627	9.717967	45.000000	-17.018560	45.108851	-63.269472	66.857506	59.449365	-44.713288	11.063679	2.726727	25.383445	-34.005043	-45.000000	5.275855	-44.858634	6.851844	60.507519	29.082522	5.138902	12.726136	15.426265	34.786355	-2.491578	
2.4600	19.473300	49.739044	2.082452	0.030431	1.021561	-0.061388	-28.159661	17.181283	-21.127578	9.830700	45.000000	-16.915413	42.569907	-62.658987	65.013317	57.483506	-45.290047	10.853037	2.733944	25.433275	-34.287189	-45.000000	5.480937	-44.949175	6.636196	60.851750	29.245333	5.665188	11.532322	14.800814	34.038341	-1.979409	
2.4700	19.345083	49.803980	2.104189	0.030708	1.021508	-0.061660	-27.907558	17.369415	-20.819407	10.004432	45.000000	-16.799442	40.043693	-62.049401	63.205926	55.538303	-45.808462	10.681648	2.669166	25.474028	-34.490449	-45.000000	5.640114	-44.983990	6.478946	61.059252	29.403332	6.030446	10.442236	14.037199	33.254159	-1.427325	
2.4800	19.223684	49.858694	2.122330	0.030964	1.021387	-0.061904	-27.629028	17.621391	-20.505626	10.231130	45.000000	-16.672840	37.504254	-61.434368	61.410478	53.621601	-46.276911	10.556637	2.547244	25.500929	-34.618999	-45.000000	5.743181	-45.000000	6.378449	61.191804	29.585627	6.316591	9.450553	13.147158	32.439284	-0.863384	
2.4900	19.099441	49.942595	2.154230	0.031217	1.021287	-0.062156	-27.364444	17.856104	-20.203901	10.442877	45.000000	-16.552994	35.230869	-60.868264	59.864516	51.815250	-46.626158	10.452157	2.345030	25.519367	-34.699205	-45.000000	5.811270	-45.000000	6.314845	61.263169	29.749439	6.478408	8.570139	12.225035	31.632915	-0.332509	
